<svg xmlns="http://www.w3.org/2000/svg" width="800" height="500" viewBox="0 0 800 500">
  <!-- placeholder slot: cartographic archive sheet — graticule, coastline, ocean track. no text -->
  <rect width="800" height="500" fill="#d8c7a3"/>
  <g stroke="#65717a" stroke-width="0.7" opacity="0.5">
    <line x1="0" y1="100" x2="800" y2="100"/><line x1="0" y1="200" x2="800" y2="200"/>
    <line x1="0" y1="300" x2="800" y2="300"/><line x1="0" y1="400" x2="800" y2="400"/>
    <line x1="130" y1="0" x2="130" y2="500"/><line x1="260" y1="0" x2="260" y2="500"/>
    <line x1="390" y1="0" x2="390" y2="500"/><line x1="520" y1="0" x2="520" y2="500"/>
    <line x1="650" y1="0" x2="650" y2="500"/>
  </g>
  <path d="M -20 340 Q 140 300 220 360 T 470 380 Q 600 400 820 350 L 820 520 L -20 520 Z" fill="#c4b28a" stroke="#211b16" stroke-width="1.4" opacity="0.85"/>
  <path d="M 60 120 Q 240 180 420 150 T 760 200" fill="none" stroke="#8e4d32" stroke-width="1.6" stroke-dasharray="10 7" opacity="0.8"/>
  <circle cx="420" cy="150" r="6" fill="#8e4d32" opacity="0.9"/>
  <circle cx="640" cy="185" r="34" fill="none" stroke="#211b16" stroke-width="0.9" opacity="0.6"/>
  <line x1="640" y1="151" x2="640" y2="219" stroke="#211b16" stroke-width="0.7" opacity="0.6"/>
  <line x1="606" y1="185" x2="674" y2="185" stroke="#211b16" stroke-width="0.7" opacity="0.6"/>
</svg>
